# xmcd CD database file
#
# Track frame offsets:
#	150
#	18225
#	36300
#	60225
#
# Disc length: 1047 seconds
#
# Revision: 2
# Processed by: cddbd v1.4b41PL1 Copyright (c) Steve Scherf et al.
# Submitted via: Feurio! 1.50.2ß - http://www.feurio.com
#
DISCID=26041504
DTITLE=Andreas Elsholz - Immer Noch Verrückt Nach Dir
DYEAR=1900
DGENRE=
TTITLE0=Immer Noch Verrückt Nach Dir, radio edit
TTITLE1=Immer Noch Verrückt Nach Dir, fan mix
TTITLE2=Immer Noch Verrückt Nach Dir, engtanz mix
TTITLE3=Immer Noch Verrückt Nach Dir, instrumental
EXTD=
EXTT0=
EXTT1=
EXTT2=
EXTT3=
PLAYORDER=
